<?xml version="1.0" standalone="no"?>
<!DOCTYPE svg PUBLIC "-//W3C//DTD SVG 20010904//EN"
 "http://www.w3.org/TR/2001/REC-SVG-20010904/DTD/svg10.dtd">
<svg version="1.0" xmlns="http://www.w3.org/2000/svg"
 width="512.000000pt" height="512.000000pt" viewBox="0 0 512.000000 512.000000"
 preserveAspectRatio="xMidYMid meet">
<metadata>
Created by potrace 1.14, written by Peter Selinger 2001-2017
</metadata>
<g transform="translate(0.000000,512.000000) scale(0.100000,-0.100000)"
fill="#000000" stroke="none">
<path d="M0 2560 l0 -2560 2560 0 2560 0 0 2560 0 2560 -2560 0 -2560 0 0
-2560z m2080 1680 c-198 -396 -361 -720 -363 -720 -1 0 -326 324 -722 720
l-720 720 1083 0 1082 0 -360 -720z m2045 0 c-396 -396 -721 -720 -722 -720
-2 0 -165 324 -363 720 l-360 720 1082 0 1083 0 -720 -720z m-2664 -1238
l-181 -362 -560 0 -560 0 0 1102 0 1103 741 -741 741 -741 -181 -361z m3499
738 l0 -1100 -560 0 -560 0 -181 362 -181 361 739 739 c406 406 739 738 740
738 2 0 3 -495 3 -1100z m-2480 -37 l0 -948 -317 317 -318 318 315 630 c173
346 316 630 317 630 2 0 3 -426 3 -947z m477 -630 l-317 -318 1 950 0 950 317
-633 317 -632 -318 -317z m-887 -138 l295 -295 -448 0 -447 0 147 295 c82 162
150 295 153 295 3 0 138 -133 300 -295z m1433 0 l147 -295 -447 0 -448 0 295
295 c162 162 297 295 300 295 3 0 71 -133 153 -295z m-2819 -1487 c-284 -568
-518 -1035 -520 -1037 -2 -2 -4 462 -4 1032 l0 1037 520 0 520 0 -516 -1032z
m1796 -128 l0 -1160 -1125 0 -1125 0 580 1160 580 1160 545 0 545 0 0 -1160z
m1830 0 l580 -1160 -1125 0 -1125 0 0 1160 0 1160 545 0 545 0 580 -1160z
m650 123 c0 -570 -2 -1034 -4 -1032 -2 2 -236 469 -520 1037 l-516 1032 520 0
520 0 0 -1037z"/>
</g>
</svg>
